HIERARCHY
ROOT root
{
	OFFSET 0.000000 0.000000 0.000000
	CHANNELS 6 Xposition Yposition Zposition Zrotation Yrotation Xrotation
	JOINT lhip
	{
		OFFSET 0.058581 -0.082280 -0.017664
		CHANNELS 3 Zrotation Yrotation Xrotation
		JOINT lknee
		{
			OFFSET 0.043451 -0.386469 0.008037
			CHANNELS 3 Zrotation Yrotation Xrotation
			JOINT lankle
			{
				OFFSET -0.014790 -0.426874 -0.037428
				CHANNELS 3 Zrotation Yrotation Xrotation
				JOINT ltoe
				{
					OFFSET 0.041054 -0.060286 0.122042
					CHANNELS 3 Zrotation Yrotation Xrotation
					End Site
					{
						OFFSET 0.000000 0.000000 0.000000
					}
				}
			}
		}
	}
	JOINT rhip
	{
		OFFSET -0.060310 -0.090513 -0.013543
		CHANNELS 3 Zrotation Yrotation Xrotation
		JOINT rknee
		{
			OFFSET -0.043257 -0.383688 -0.004843
			CHANNELS 3 Zrotation Yrotation Xrotation
			JOINT rankle
			{
				OFFSET 0.019056 -0.420046 -0.034562
				CHANNELS 3 Zrotation Yrotation Xrotation
				JOINT rtoe
				{
					OFFSET -0.034840 -0.062106 0.130323
					CHANNELS 3 Zrotation Yrotation Xrotation
					End Site
					{
						OFFSET 0.000000 0.000000 0.000000
					}
				}
			}
		}
	}
	JOINT lowerback
	{
		OFFSET 0.004439 0.124404 -0.038385
		CHANNELS 3 Zrotation Yrotation Xrotation
		JOINT upperback
		{
			OFFSET 0.004488 0.137956 0.026820
			CHANNELS 3 Zrotation Yrotation Xrotation
			JOINT chest
			{
				OFFSET -0.002265 0.056032 0.002855
				CHANNELS 3 Zrotation Yrotation Xrotation
				JOINT lowerneck
				{
					OFFSET -0.013390 0.211636 -0.033468
					CHANNELS 3 Zrotation Yrotation Xrotation
					JOINT upperneck
					{
						OFFSET 0.010113 0.088937 0.050410
						CHANNELS 3 Zrotation Yrotation Xrotation
						End Site
						{
							OFFSET 0.000000 0.000000 0.000000
						}
					}
				}
				JOINT lclavicle
				{
					OFFSET 0.071702 0.114000 -0.018898
					CHANNELS 3 Zrotation Yrotation Xrotation
					JOINT lshoulder
					{
						OFFSET 0.122921 0.045205 -0.019046
						CHANNELS 3 Zrotation Yrotation Xrotation
						JOINT lelbow
						{
							OFFSET 0.255332 -0.015649 -0.022946
							CHANNELS 3 Zrotation Yrotation Xrotation
							JOINT lwrist
							{
								OFFSET 0.265709 0.012698 -0.007375
								CHANNELS 3 Zrotation Yrotation Xrotation
								End Site
								{
									OFFSET 0.000000 0.000000 0.000000
								}
							}
						}
					}
				}
				JOINT rclavicle
				{
					OFFSET -0.082954 0.112472 -0.023707
					CHANNELS 3 Zrotation Yrotation Xrotation
					JOINT rshoulder
					{
						OFFSET -0.113228 0.046853 -0.008472
						CHANNELS 3 Zrotation Yrotation Xrotation
						JOINT relbow
						{
							OFFSET -0.260127 -0.014369 -0.031269
							CHANNELS 3 Zrotation Yrotation Xrotation
							JOINT rwrist
							{
								OFFSET -0.269108 0.006794 -0.006027
								CHANNELS 3 Zrotation Yrotation Xrotation
								End Site
								{
									OFFSET 0.000000 0.000000 0.000000
								}
							}
						}
					}
				}
			}
		}
	}
}
MOTION
Frames: 16
Frame Time: 0.033333
1.148209 1.166002 0.984560 -88.413579 2.297823 86.765624 0.117851 -0.977659 7.640782 -2.771300 -16.388285 2.827551 7.118753 7.967179 -18.547309 0.000000 -0.000000 0.000000 4.432785 -2.937574 5.007680 3.744499 3.233841 6.049538 0.606628 -4.095356 -14.563286 0.000000 -0.000000 0.000000 -2.643408 2.057521 3.196192 2.128011 -2.535256 2.878249 2.265219 -1.586019 4.701599 4.255528 3.771944 3.691435 2.714985 1.418603 5.954863 -23.288489 5.627660 4.688377 -64.070767 -5.071457 7.624304 11.068865 -28.244901 5.509755 -1.938363 -1.949837 -11.723449 21.488207 -4.836339 3.663874 63.013502 0.335722 9.685293 -15.907650 27.710262 -2.796898 7.667001 1.124252 -12.362207 
1.148134 1.165647 0.984426 -88.414458 2.255913 86.794541 0.038160 -0.981644 7.527525 -2.784335 -16.393093 2.964022 7.079604 8.063973 -18.473656 0.000000 -0.000000 0.000000 4.337053 -2.859930 4.981757 3.790550 3.132524 6.068874 0.698212 -4.040880 -14.497256 0.000000 -0.000000 0.000000 -2.614484 2.110495 3.120435 2.058078 -2.410000 2.735289 2.240288 -1.620684 4.766269 4.369454 3.502973 3.997321 2.592514 1.374583 6.019455 -23.121160 5.826168 4.693953 -64.296273 -4.780815 7.557336 11.160631 -26.980764 5.610999 -1.922580 -1.858592 -11.644697 21.240385 -5.020075 3.756243 63.363524 0.313849 9.697439 -15.997404 27.216269 -2.578157 7.641476 1.246945 -12.568711 
1.148006 1.165536 0.984417 -88.447933 2.256524 86.795354 -0.009471 -1.034182 7.565158 -2.721764 -16.414578 2.923798 7.198605 8.257158 -18.330370 0.000000 -0.000000 0.000000 4.335007 -2.840295 4.943791 3.804734 3.242801 6.145059 0.619126 -4.183466 -14.551848 0.000000 -0.000000 0.000000 -2.601249 2.156944 3.023304 2.033801 -2.329603 2.774282 2.190322 -1.632045 4.815361 4.376118 3.664054 3.928373 2.532683 1.443965 6.047454 -23.084271 6.057695 4.768019 -64.242688 -4.446742 7.437169 11.081923 -26.127161 5.703135 -2.239172 -1.881158 -11.822184 21.321334 -5.075590 3.758901 63.267745 0.300998 9.727496 -15.843581 26.656920 -2.466336 7.769488 1.018377 -12.549544 
1.148600 1.165355 0.984314 -88.317834 2.270998 86.875121 0.024215 -1.019487 7.343911 -2.807140 -16.498881 3.073828 7.110900 8.147619 -18.614096 0.000000 -0.000000 0.000000 4.381079 -2.823517 4.741725 3.775955 3.185902 6.274306 0.645494 -4.235262 -14.520838 0.000000 -0.000000 0.000000 -2.652808 2.142865 3.074911 2.037766 -2.347540 2.637348 2.231184 -1.554958 4.859886 4.384017 3.510055 3.914321 2.626297 1.221146 5.943090 -23.056146 6.262903 4.689017 -64.323745 -4.140227 7.291647 10.983644 -24.828243 5.865700 -2.214944 -1.767116 -11.501541 21.270138 -5.242316 3.772615 63.292991 0.268012 9.648392 -15.731868 26.230807 -2.402447 7.766759 1.051100 -12.620629 
1.148137 1.165187 0.984133 -88.495791 2.324102 86.814821 0.102441 -0.764163 7.545200 -2.740454 -16.535402 2.842512 7.230063 8.229922 -18.280888 0.000000 -0.000000 0.000000 4.401570 -2.842993 4.835349 3.791065 3.305498 6.271631 0.565774 -4.120372 -14.492483 0.000000 -0.000000 0.000000 -2.640434 2.172443 2.848388 2.082815 -2.202634 2.862648 2.227007 -1.430346 4.855531 4.486872 3.035677 4.025888 2.621648 0.884294 5.933486 -23.113759 6.308090 4.770511 -64.298419 -4.005467 7.141785 10.916830 -24.277501 5.835356 -2.515888 -1.603022 -11.567655 21.112261 -5.288712 3.927515 63.436769 0.188093 9.500255 -15.788240 25.988593 -2.353857 7.845794 0.912530 -12.609592 
1.148661 1.164847 0.984099 -88.239748 2.375671 86.713717 0.157055 -0.862379 7.543887 -2.793589 -16.665550 2.944829 7.215806 8.176455 -18.224502 0.000000 -0.000000 0.000000 4.518506 -2.685604 4.943723 3.776634 3.229783 6.189094 0.295606 -4.272840 -14.046724 0.000000 -0.000000 0.000000 -2.648383 2.180715 3.026328 2.099701 -2.240657 2.886170 2.247576 -1.457444 4.887478 4.644829 2.734529 3.817773 2.707867 0.605416 5.906142 -23.138546 6.477266 4.784387 -64.331036 -3.916080 7.135645 11.019305 -23.839664 6.200092 -2.760861 -1.585829 -11.358847 21.088322 -5.317071 3.740390 63.506305 0.157064 9.457627 -15.693761 25.442109 -2.287357 7.883988 0.902781 -12.516907 
1.149011 1.164750 0.984184 -88.162225 2.448436 86.707156 0.275237 -0.845767 7.502069 -2.865514 -16.672781 2.981499 7.183119 8.080040 -18.247321 0.000000 -0.000000 0.000000 4.544504 -2.747327 5.067007 3.833262 3.259697 5.907257 0.286612 -4.315976 -13.919089 0.000000 -0.000000 0.000000 -2.618970 2.203866 3.049255 2.076077 -2.201399 2.890598 2.279474 -1.424118 4.920247 4.667234 2.708948 3.776510 2.672427 0.659857 5.932037 -23.217092 6.673396 4.773734 -64.339361 -3.739424 7.042331 11.127796 -23.663941 6.013327 -2.747082 -1.460461 -11.197074 21.176802 -5.389785 3.692789 63.429129 0.086027 9.398449 -15.659898 25.107988 -2.460265 7.906160 0.874925 -12.552007 
1.149330 1.164400 0.984146 -88.096336 2.432940 86.615407 0.245008 -0.848529 7.604919 -2.858655 -16.686662 2.933268 7.129570 8.046537 -18.267270 0.000000 -0.000000 0.000000 4.532640 -2.742058 5.116155 3.784029 3.243450 5.948676 0.476713 -4.475994 -14.254666 0.000000 -0.000000 0.000000 -2.615469 2.199605 3.097157 2.024963 -2.142421 2.975518 2.221810 -1.432383 5.019887 4.678839 3.009953 3.286022 2.567658 0.735617 6.123737 -23.219252 6.741170 4.707295 -64.291881 -3.650285 7.050555 11.131955 -23.523499 5.876789 -2.634227 -1.495788 -11.228090 21.384195 -5.416675 3.516491 63.311276 0.068668 9.479837 -15.633114 24.690971 -2.481909 7.745490 0.981341 -12.342046 
1.149828 1.164023 0.984166 -88.049048 2.450787 86.446817 0.264758 -0.822115 7.785317 -2.903025 -16.827089 2.859571 7.055594 7.954836 -18.512251 0.000000 -0.000000 0.000000 4.501359 -2.827357 5.255123 3.778231 3.242643 6.002039 0.566986 -4.493908 -14.450452 0.000000 -0.000000 0.000000 -2.672436 2.321239 3.249140 2.091073 -2.172396 3.103910 2.270597 -1.471402 4.928649 4.817959 2.658967 3.594152 2.652783 0.497560 6.045276 -23.328167 6.686003 4.880106 -64.307173 -3.626350 7.005319 11.230400 -23.688930 5.805010 -2.624526 -1.444890 -11.333557 21.434753 -5.299235 3.589756 63.239725 0.051494 9.381978 -15.674627 24.601094 -2.546050 7.819082 0.879448 -12.322772 
1.149867 1.163334 0.984054 -88.104276 2.486212 86.421320 0.285022 -0.838549 7.928203 -2.858675 -16.788484 2.644170 7.126954 8.020211 -18.157273 0.000000 -0.000000 0.000000 4.430290 -2.828628 5.381273 3.876339 3.299188 5.789613 0.595307 -4.595691 -14.456443 0.000000 -0.000000 0.000000 -2.675216 2.359459 3.036031 2.150711 -2.041325 3.288405 2.274863 -1.423014 5.010782 4.730570 2.703431 3.593303 2.490824 0.513345 6.038349 -23.492301 6.809490 4.746351 -64.149816 -3.764665 7.088638 10.994779 -23.896959 6.110845 -2.749860 -1.444733 -11.557905 21.531293 -5.363590 3.652123 63.146087 -0.029410 9.433811 -15.761910 24.722365 -2.644159 7.793359 0.777927 -12.408236 
1.150791 1.162798 0.984069 -88.000572 2.470779 86.420024 0.212090 -0.973330 7.935352 -2.814847 -16.849488 2.513047 6.982082 7.920124 -18.504545 0.000000 -0.000000 0.000000 4.450764 -2.766508 5.147790 3.772660 3.091133 6.129534 0.706012 -4.509355 -14.633981 0.000000 -0.000000 0.000000 -2.705126 2.360841 3.100615 2.103768 -2.042076 3.304163 2.293861 -1.417865 5.065618 4.834355 2.948675 3.246935 2.555286 0.548827 6.012906 -23.524411 6.863992 4.581318 -64.293593 -3.794581 7.162773 11.161359 -24.339144 5.846723 -2.690998 -1.657838 -11.385235 21.648068 -5.469563 3.496061 63.127029 0.066781 9.449430 -15.725651 24.803344 -2.716161 7.826448 0.789602 -12.206921 
1.151655 1.162299 0.983943 -87.883629 2.509603 86.508028 0.304734 -0.978034 7.815396 -2.926759 -16.876623 2.463367 7.019943 7.813216 -18.318450 0.000000 -0.000000 0.000000 4.449905 -2.809885 4.903569 3.809312 2.934817 6.268864 0.668164 -4.511284 -14.744292 0.000000 -0.000000 0.000000 -2.719162 2.356058 3.000575 2.152313 -2.032961 3.260138 2.305795 -1.441176 5.067858 4.847433 2.872972 3.480328 2.576816 0.445339 6.091148 -23.532200 6.837701 4.611356 -64.430957 -4.005162 7.260088 11.119298 -24.716395 5.799858 -2.450574 -1.738557 -11.420128 21.637279 -5.523115 3.654309 63.195431 0.128700 9.406746 -15.862911 24.979170 -2.847299 7.765119 0.854203 -12.327735 
1.152770 1.161856 0.984186 -87.746563 2.589444 86.404538 0.345254 -1.031349 7.827215 -2.893051 -17.047624 2.497384 6.935722 7.795718 -18.413138 0.000000 -0.000000 0.000000 4.563308 -2.729932 4.939141 3.729391 2.896214 6.277138 0.714562 -4.626895 -14.712506 0.000000 -0.000000 0.000000 -2.650643 2.221668 3.235840 2.146767 -2.058991 3.255825 2.292900 -1.423901 5.149048 4.867821 3.207921 2.959956 2.662936 0.504809 6.083764 -23.653070 6.803781 4.337972 -64.395408 -4.177391 7.431503 11.083457 -25.175790 5.870259 -2.396872 -1.856314 -11.396465 21.750681 -5.494574 3.293682 63.200495 0.203604 9.547764 -15.875639 25.050251 -2.842985 7.822089 0.872947 -12.251489 
1.153771 1.161542 0.984197 -87.691547 2.616463 86.427022 0.380310 -1.109633 7.792559 -2.902507 -16.936851 2.409154 7.011515 7.733173 -18.271240 0.000000 -0.000000 0.000000 4.579989 -2.747903 4.815030 3.704931 2.799895 6.360947 0.652856 -4.611412 -14.614362 0.000000 -0.000000 0.000000 -2.692629 2.232239 3.355781 2.191579 -2.070489 3.219676 2.351583 -1.494192 5.050269 4.971252 3.038324 3.051818 2.734899 0.464307 6.190727 -23.666192 6.774471 4.403518 -64.498399 -4.350382 7.488332 11.176426 -25.850016 5.629429 -2.265449 -1.915459 -11.444169 21.673421 -5.478341 3.277473 63.237462 0.220865 9.562089 -15.805964 25.303297 -2.922163 7.749022 0.910427 -12.268454 
1.154650 1.161079 0.984235 -87.535991 2.670026 86.468998 0.487062 -1.071786 7.698497 -2.987468 -16.960091 2.398535 6.977738 7.505957 -18.205477 0.000000 -0.000000 0.000000 4.614580 -2.870278 4.642034 3.674573 2.685221 6.514224 0.668653 -4.582171 -14.793838 0.000000 -0.000000 0.000000 -2.718229 2.151766 3.440854 2.254958 -2.129018 3.103747 2.433330 -1.513903 5.020496 5.059634 2.734780 3.064139 2.697996 0.238844 6.221744 -23.538317 6.796918 4.430864 -64.736849 -4.548497 7.590738 11.133090 -26.541578 5.928038 -2.306219 -1.819327 -11.579660 21.490870 -5.439396 3.322365 63.384954 0.259121 9.503264 -15.742668 25.565086 -2.785639 7.863563 0.945523 -12.290268 
1.155311 1.160872 0.984219 -87.596881 2.683404 86.363118 0.544565 -0.880488 7.736747 -3.038030 -16.932305 2.442566 7.005659 7.432341 -18.164849 0.000000 -0.000000 0.000000 4.580348 -2.871822 4.657367 3.707397 2.625171 6.615194 0.700092 -4.488051 -14.742145 0.000000 -0.000000 0.000000 -2.753293 2.215485 3.620337 2.319341 -2.139093 3.150061 2.453978 -1.470202 4.858462 5.120971 2.253736 3.355678 2.592521 -0.115463 6.392267 -23.538615 6.641844 4.498685 -64.661335 -4.768181 7.682443 10.958084 -27.208171 6.239908 -2.190067 -1.875808 -11.651518 21.401233 -5.321759 3.497089 63.540582 0.285269 9.472305 -15.873207 25.917069 -2.731442 7.820495 1.058309 -12.284688 
